# Blender 4.0.1
# www.blender.org
o alligator
v 4.844170 1.421862 0.000000
v 4.814610 1.471137 0.000000
v 4.765337 1.500700 0.000000
v 4.706205 1.520408 0.000000
v 4.647084 1.540116 0.000000
v 4.568252 1.540116 0.000000
v 4.499269 1.530264 0.000000
v 4.440136 1.530264 0.000000
v 4.381015 1.549972 0.000000
v 4.312032 1.559827 0.000000
v 4.252900 1.579535 0.000000
v 4.203628 1.609099 0.000000
v 4.144507 1.628807 0.000000
v 4.075524 1.618954 0.000000
v 4.006542 1.609099 0.000000
v 3.937560 1.599243 0.000000
v 3.868577 1.609099 0.000000
v 3.819305 1.638662 0.000000
v 3.760184 1.658370 0.000000
v 3.691202 1.668226 0.000000
v 3.612369 1.668226 0.000000
v 3.533525 1.668226 0.000000
v 3.484254 1.697789 0.000000
v 3.425133 1.717497 0.000000
v 3.346289 1.717497 0.000000
v 3.267457 1.717497 0.000000
v 3.198474 1.727353 0.000000
v 3.149203 1.756916 0.000000
v 3.109781 1.796332 0.000000
v 3.060515 1.825896 0.000000
v 2.991532 1.835751 0.000000
v 2.922550 1.825896 0.000000
v 2.863423 1.845607 0.000000
v 2.794441 1.835751 0.000000
v 2.735314 1.855459 0.000000
v 2.676187 1.875170 0.000000
v 2.597355 1.875170 0.000000
v 2.538228 1.855459 0.000000
v 2.479101 1.835751 0.000000
v 2.429829 1.806188 0.000000
v 2.370702 1.786480 0.000000
v 2.291864 1.786480 0.000000
v 2.232737 1.806188 0.000000
v 2.163755 1.816043 0.000000
v 2.084923 1.816043 0.000000
v 2.025796 1.835751 0.000000
v 1.956813 1.845607 0.000000
v 1.887831 1.855459 0.000000
v 1.828704 1.855459 0.000000
v 1.759724 1.865315 0.000000
v 1.700597 1.865315 0.000000
v 1.641470 1.845607 0.000000
v 1.572487 1.855459 0.000000
v 1.503508 1.865315 0.000000
v 1.424670 1.865315 0.000000
v 1.355690 1.855459 0.000000
v 1.286708 1.845607 0.000000
v 1.207873 1.845607 0.000000
v 1.148746 1.865315 0.000000
v 1.069911 1.865315 0.000000
v 0.991074 1.865315 0.000000
v 0.931947 1.845607 0.000000
v 0.862966 1.835751 0.000000
v 0.793985 1.845607 0.000000
v 0.734858 1.825896 0.000000
v 0.685586 1.796332 0.000000
v 0.626459 1.776624 0.000000
v 0.557478 1.786480 0.000000
v 0.488497 1.796332 0.000000
v 0.419515 1.806188 0.000000
v 0.340680 1.806188 0.000000
v 0.271699 1.796332 0.000000
v 0.202717 1.786480 0.000000
v 0.143590 1.766769 0.000000
v 0.074609 1.756916 0.000000
v -0.004226 1.756916 0.000000
v -0.083063 1.756916 0.000000
v -0.161898 1.756916 0.000000
v -0.240733 1.756916 0.000000
v -0.299860 1.737205 0.000000
v -0.368842 1.727353 0.000000
v -0.447677 1.727353 0.000000
v -0.526513 1.727353 0.000000
v -0.605350 1.727353 0.000000
v -0.664475 1.707642 0.000000
v -0.723601 1.687934 0.000000
v -0.802440 1.687934 0.000000
v -0.871422 1.697789 0.000000
v -0.950254 1.697789 0.000000
v -1.009381 1.717497 0.000000
v -1.078364 1.727353 0.000000
v -1.157201 1.727353 0.000000
v -1.226178 1.737205 0.000000
v -1.275455 1.766769 0.000000
v -1.324727 1.776624 0.000000
v -1.364143 1.737205 0.000000
v -1.423271 1.717497 0.000000
v -1.482397 1.697789 0.000000
v -1.531669 1.668226 0.000000
v -1.590795 1.648515 0.000000
v -1.669633 1.648515 0.000000
v -1.718905 1.678078 0.000000
v -1.787887 1.668226 0.000000
v -1.866720 1.668226 0.000000
v -1.935702 1.658370 0.000000
v -1.994829 1.638662 0.000000
v -2.063812 1.628807 0.000000
v -2.132794 1.618954 0.000000
v -2.201777 1.609099 0.000000
v -2.270759 1.599243 0.000000
v -2.339730 1.609099 0.000000
v -2.418574 1.609099 0.000000
v -2.477695 1.589391 0.000000
v -2.536828 1.569680 0.000000
v -2.605810 1.559827 0.000000
v -2.674793 1.549972 0.000000
v -2.753625 1.549972 0.000000
v -2.832457 1.549972 0.000000
v -2.911290 1.549972 0.000000
v -2.980272 1.540116 0.000000
v -3.059115 1.540116 0.000000
v -3.128098 1.530264 0.000000
v -3.187219 1.510553 0.000000
v -3.256202 1.520408 0.000000
v -3.315322 1.500700 0.000000
v -3.394166 1.500700 0.000000
v -3.472999 1.500700 0.000000
v -3.541981 1.490845 0.000000
v -3.591253 1.461281 0.000000
v -3.660235 1.451426 0.000000
v -3.729218 1.441573 0.000000
v -3.788339 1.421862 0.000000
v -3.847472 1.402154 0.000000
v -3.926303 1.402154 0.000000
v -3.985436 1.382446 0.000000
v -4.044557 1.362735 0.000000
v -4.113540 1.352883 0.000000
v -4.172661 1.333175 0.000000
v -4.251504 1.333175 0.000000
v -4.330337 1.333175 0.000000
v -4.399320 1.323319 0.000000
v -4.448591 1.313464 0.000000
v -4.527423 1.313464 0.000000
v -4.586556 1.293756 0.000000
v -4.635827 1.264192 0.000000
v -4.694959 1.244484 0.000000
v -4.754081 1.224773 0.000000
v -4.832926 1.224773 0.000000
v -4.901896 1.214921 0.000000
v -4.941318 1.175502 0.000000
v -4.980740 1.136083 0.000000
v -5.010288 1.086811 0.000000
v -4.990589 1.027684 0.000000
v -4.941318 0.998121 0.000000
v -4.872324 0.988268 0.000000
v -4.793503 0.988268 0.000000
v -4.724509 0.998121 0.000000
v -4.655538 1.007976 0.000000
v -4.586556 1.017832 0.000000
v -4.507723 1.017832 0.000000
v -4.428880 1.017832 0.000000
v -4.359898 1.027684 0.000000
v -4.300776 1.047395 0.000000
v -4.221944 1.047395 0.000000
v -4.152962 1.057248 0.000000
v -4.074118 1.057248 0.000000
v -3.995286 1.057248 0.000000
v -3.916454 1.057248 0.000000
v -3.847472 1.067103 0.000000
v -3.778489 1.076956 0.000000
v -3.709507 1.086811 0.000000
v -3.640524 1.096667 0.000000
v -3.571542 1.106519 0.000000
v -3.492710 1.106519 0.000000
v -3.423727 1.116374 0.000000
v -3.344895 1.116374 0.000000
v -3.266051 1.116374 0.000000
v -3.187219 1.116374 0.000000
v -3.108387 1.116374 0.000000
v -3.029543 1.116374 0.000000
v -2.950711 1.116374 0.000000
v -2.871879 1.116374 0.000000
v -2.802896 1.106519 0.000000
v -2.743764 1.086811 0.000000
v -2.694492 1.057248 0.000000
v -2.635371 1.037540 0.000000
v -2.566388 1.027684 0.000000
v -2.497406 1.017832 0.000000
v -2.428423 1.007976 0.000000
v -2.349591 1.007976 0.000000
v -2.280609 0.998121 0.000000
v -2.221488 0.978413 0.000000
v -2.152505 0.968557 0.000000
v -2.083517 0.958704 0.000000
v -2.014540 0.948849 0.000000
v -1.945558 0.938994 0.000000
v -1.886431 0.919286 0.000000
v -1.817448 0.909430 0.000000
v -1.738610 0.909430 0.000000
v -1.709050 0.860159 0.000000
v -1.699194 0.791176 0.000000
v -1.689339 0.722196 0.000000
v -1.669633 0.663069 0.000000
v -1.649923 0.603942 0.000000
v -1.620362 0.554671 0.000000
v -1.590795 0.505397 0.000000
v -1.580940 0.436417 0.000000
v -1.610506 0.387145 0.000000
v -1.590795 0.328018 0.000000
v -1.580940 0.259036 0.000000
v -1.541524 0.219617 0.000000
v -1.511958 0.170345 0.000000
v -1.462686 0.140782 0.000000
v -1.433126 0.190056 0.000000
v -1.383854 0.180201 0.000000
v -1.334582 0.150637 0.000000
v -1.265600 0.140782 0.000000
v -1.245889 0.180201 0.000000
v -1.255745 0.209764 0.000000
v -1.206473 0.180201 0.000000
v -1.137491 0.170345 0.000000
v -1.098074 0.209764 0.000000
v -1.107930 0.259036 0.000000
v -1.107930 0.337871 0.000000
v -1.048803 0.357582 0.000000
v -0.989676 0.337871 0.000000
v -0.940399 0.308307 0.000000
v -0.881272 0.308307 0.000000
v -0.891127 0.377290 0.000000
v -0.920694 0.426562 0.000000
v -0.940399 0.485688 0.000000
v -0.979820 0.525107 0.000000
v -1.029092 0.554671 0.000000
v -1.068508 0.594087 0.000000
v -1.098074 0.643361 0.000000
v -1.117779 0.702488 0.000000
v -1.068508 0.732052 0.000000
v -0.989676 0.732052 0.000000
v -0.910838 0.732052 0.000000
v -0.832000 0.732052 0.000000
v -0.753165 0.732052 0.000000
v -0.674330 0.732052 0.000000
v -0.605350 0.722196 0.000000
v -0.526513 0.722196 0.000000
v -0.457533 0.712341 0.000000
v -0.388551 0.702488 0.000000
v -0.319571 0.692633 0.000000
v -0.250588 0.702488 0.000000
v -0.181606 0.712341 0.000000
v -0.102771 0.712341 0.000000
v -0.033790 0.722196 0.000000
v 0.045045 0.722196 0.000000
v 0.123882 0.722196 0.000000
v 0.202717 0.722196 0.000000
v 0.281553 0.722196 0.000000
v 0.350534 0.712341 0.000000
v 0.429370 0.712341 0.000000
v 0.498351 0.702488 0.000000
v 0.567333 0.712341 0.000000
v 0.646168 0.712341 0.000000
v 0.715150 0.722196 0.000000
v 0.784131 0.732052 0.000000
v 0.843258 0.712341 0.000000
v 0.872822 0.663069 0.000000
v 0.892530 0.603942 0.000000
v 0.912238 0.544815 0.000000
v 0.941801 0.495544 0.000000
v 0.971365 0.446272 0.000000
v 0.961511 0.377290 0.000000
v 0.981220 0.318163 0.000000
v 1.020638 0.278744 0.000000
v 1.069911 0.249180 0.000000
v 1.089619 0.190056 0.000000
v 1.138892 0.160493 0.000000
v 1.168454 0.209764 0.000000
v 1.207873 0.170345 0.000000
v 1.276855 0.160493 0.000000
v 1.286708 0.209764 0.000000
v 1.326127 0.190056 0.000000
v 1.375399 0.160493 0.000000
v 1.434525 0.140782 0.000000
v 1.444381 0.190056 0.000000
v 1.434525 0.259036 0.000000
v 1.444381 0.328018 0.000000
v 1.503508 0.347726 0.000000
v 1.562635 0.328018 0.000000
v 1.631615 0.337871 0.000000
v 1.680889 0.308307 0.000000
v 1.730161 0.298455 0.000000
v 1.749869 0.357582 0.000000
v 1.730161 0.416709 0.000000
v 1.700597 0.465980 0.000000
v 1.661178 0.505397 0.000000
v 1.611907 0.534960 0.000000
v 1.552779 0.554671 0.000000
v 1.542924 0.623651 0.000000
v 1.562635 0.682778 0.000000
v 1.631615 0.692633 0.000000
v 1.690742 0.712341 0.000000
v 1.740013 0.741904 0.000000
v 1.818848 0.741904 0.000000
v 1.897686 0.741904 0.000000
v 1.966668 0.732052 0.000000
v 2.035645 0.741904 0.000000
v 2.104628 0.751760 0.000000
v 2.173610 0.761615 0.000000
v 2.242593 0.771468 0.000000
v 2.311575 0.781324 0.000000
v 2.380558 0.791176 0.000000
v 2.459390 0.791176 0.000000
v 2.528373 0.781324 0.000000
v 2.597355 0.771468 0.000000
v 2.666337 0.781324 0.000000
v 2.735314 0.791176 0.000000
v 2.804296 0.801032 0.000000
v 2.853568 0.830595 0.000000
v 2.902839 0.860159 0.000000
v 2.971822 0.870014 0.000000
v 3.030949 0.889722 0.000000
v 3.099931 0.899577 0.000000
v 3.168914 0.889722 0.000000
v 3.237896 0.879867 0.000000
v 3.306879 0.870014 0.000000
v 3.385711 0.870014 0.000000
v 3.464543 0.870014 0.000000
v 3.543387 0.870014 0.000000
v 3.622219 0.870014 0.000000
v 3.691202 0.860159 0.000000
v 3.760184 0.850303 0.000000
v 3.839016 0.850303 0.000000
v 3.917848 0.850303 0.000000
v 3.996692 0.850303 0.000000
v 4.065663 0.860159 0.000000
v 4.144507 0.860159 0.000000
v 4.213490 0.850303 0.000000
v 4.292322 0.850303 0.000000
v 4.371154 0.850303 0.000000
v 4.440136 0.860159 0.000000
v 4.518980 0.860159 0.000000
v 4.597812 0.860159 0.000000
v 4.656933 0.879867 0.000000
v 4.696355 0.919286 0.000000
v 4.686505 0.968557 0.000000
v 4.647084 1.007976 0.000000
v 4.617523 1.057248 0.000000
v 4.568252 1.086811 0.000000
v 4.528830 1.047395 0.000000
v 4.469708 1.027684 0.000000
v 4.420425 1.057248 0.000000
v 4.381015 1.096667 0.000000
v 4.331743 1.086811 0.000000
v 4.282472 1.057248 0.000000
v 4.223339 1.037540 0.000000
v 4.183928 1.076956 0.000000
v 4.144507 1.116374 0.000000
v 4.095235 1.086811 0.000000
v 4.036103 1.067103 0.000000
v 3.986831 1.096667 0.000000
v 3.937560 1.126230 0.000000
v 3.878438 1.106519 0.000000
v 3.829166 1.096667 0.000000
v 3.779883 1.126230 0.000000
v 3.720762 1.126230 0.000000
v 3.661641 1.106519 0.000000
v 3.602508 1.126230 0.000000
v 3.563087 1.145938 0.000000
v 3.503965 1.126230 0.000000
v 3.454693 1.136083 0.000000
v 3.405422 1.165646 0.000000
v 3.356150 1.136083 0.000000
v 3.297018 1.136083 0.000000
v 3.237896 1.155794 0.000000
v 3.188624 1.145938 0.000000
v 3.139353 1.155794 0.000000
v 3.099931 1.175502 0.000000
v 3.030949 1.165646 0.000000
v 2.981677 1.195210 0.000000
v 2.912695 1.185357 0.000000
v 2.942261 1.214921 0.000000
v 3.021093 1.214921 0.000000
v 3.070365 1.205065 0.000000
v 3.129492 1.205065 0.000000
v 3.168914 1.165646 0.000000
v 3.228035 1.185357 0.000000
v 3.267457 1.185357 0.000000
v 3.316729 1.155794 0.000000
v 3.366000 1.185357 0.000000
v 3.425133 1.205065 0.000000
v 3.474404 1.175502 0.000000
v 3.523675 1.165646 0.000000
v 3.572948 1.195210 0.000000
v 3.622219 1.165646 0.000000
v 3.671491 1.136083 0.000000
v 3.720762 1.165646 0.000000
v 3.779883 1.165646 0.000000
v 3.819305 1.126230 0.000000
v 3.878438 1.126230 0.000000
v 3.927710 1.155794 0.000000
v 3.976981 1.145938 0.000000
v 4.026253 1.116374 0.000000
v 4.085374 1.116374 0.000000
v 4.134645 1.145938 0.000000
v 4.183928 1.116374 0.000000
v 4.233200 1.086811 0.000000
v 4.282472 1.096667 0.000000
v 4.331743 1.126230 0.000000
v 4.390865 1.126230 0.000000
v 4.420425 1.076956 0.000000
v 4.469708 1.047395 0.000000
v 4.518980 1.076956 0.000000
v 4.558390 1.116374 0.000000
v 4.617523 1.096667 0.000000
v 4.656933 1.057248 0.000000
v 4.706205 1.027684 0.000000
v 4.735777 1.076956 0.000000
v 4.745627 1.145938 0.000000
v 4.785048 1.185357 0.000000
v 4.804760 1.244484 0.000000
v 4.814610 1.313464 0.000000
v 4.844170 1.362735 0.000000
v 3.306879 1.717497 0.000000
v -1.107930 0.298455 0.000000
v 3.503965 0.870014 0.000000
v -4.113540 1.057248 0.000000
v -0.408261 1.727353 0.000000
v 4.105085 0.860159 0.000000
v -0.763020 1.687934 0.000000
v 3.878438 0.850303 0.000000
v 0.606750 0.712341 0.000000
v -2.714203 1.549972 0.000000
v -0.043644 1.756916 0.000000
v -2.990133 1.116374 0.000000
v 0.389952 0.712341 0.000000
vn -0.0000 -0.0000 1.0000
s 0
f 177//1 125//1 176//1
f 344//1 341//1 343//1
f 343//1 341//1 342//1
f 341//1 344//1 340//1
f 340//1 347//1 339//1
f 344//1 347//1 340//1
f 345//1 347//1 344//1
f 347//1 345//1 346//1
f 348//1 339//1 347//1
f 338//1 349//1 337//1
f 337//1 352//1 336//1
f 349//1 352//1 337//1
f 339//1 348//1 338//1
f 336//1 353//1 335//1
f 335//1 353//1 334//1
f 336//1 352//1 353//1
f 349//1 338//1 348//1
f 351//1 349//1 350//1
f 352//1 349//1 351//1
f 334//1 356//1 426//1
f 353//1 356//1 334//1
f 355//1 356//1 354//1
f 354//1 356//1 353//1
f 333//1 357//1 332//1
f 332//1 357//1 331//1
f 426//1 357//1 333//1
f 357//1 426//1 356//1
f 360//1 358//1 359//1
f 360//1 331//1 358//1
f 358//1 331//1 357//1
f 360//1 428//1 331//1
f 363//1 361//1 362//1
f 361//1 428//1 360//1
f 364//1 328//1 363//1
f 363//1 328//1 361//1
f 330//1 361//1 329//1
f 329//1 361//1 328//1
f 361//1 330//1 428//1
f 328//1 364//1 327//1
f 367//1 365//1 366//1
f 365//1 327//1 364//1
f 365//1 326//1 327//1
f 367//1 326//1 365//1
f 367//1 423//1 326//1
f 370//1 368//1 369//1
f 368//1 325//1 367//1
f 367//1 325//1 423//1
f 370//1 324//1 368//1
f 368//1 324//1 325//1
f 324//1 370//1 323//1
f 323//1 371//1 322//1
f 373//1 371//1 372//1
f 371//1 323//1 370//1
f 322//1 373//1 321//1
f 322//1 371//1 373//1
f 321//1 373//1 320//1
f 373//1 374//1 320//1
f 376//1 374//1 375//1
f 378//1 376//1 377//1
f 376//1 320//1 374//1
f 319//1 376//1 318//1
f 318//1 378//1 317//1
f 376//1 319//1 320//1
f 378//1 318//1 376//1
f 378//1 316//1 317//1
f 316//1 314//1 315//1
f 313//1 311//1 312//1
f 316//1 378//1 314//1
f 314//1 378//1 313//1
f 313//1 378//1 311//1
f 311//1 378//1 310//1
f 379//1 34//1 378//1
f 378//1 41//1 310//1
f 41//1 309//1 310//1
f 40//1 41//1 378//1
f 382//1 27//1 381//1
f 381//1 27//1 380//1
f 378//1 34//1 40//1
f 309//1 42//1 308//1
f 308//1 42//1 307//1
f 41//1 42//1 309//1
f 307//1 42//1 306//1
f 306//1 45//1 305//1
f 305//1 45//1 304//1
f 304//1 302//1 303//1
f 304//1 45//1 302//1
f 302//1 47//1 301//1
f 42//1 45//1 306//1
f 301//1 49//1 300//1
f 300//1 298//1 299//1
f 300//1 297//1 298//1
f 300//1 53//1 297//1
f 384//1 382//1 383//1
f 387//1 385//1 386//1
f 385//1 26//1 384//1
f 384//1 26//1 382//1
f 387//1 388//1 385//1
f 388//1 25//1 421//1
f 390//1 391//1 389//1
f 389//1 391//1 388//1
f 421//1 385//1 388//1
f 21//1 22//1 391//1
f 393//1 394//1 392//1
f 392//1 394//1 391//1
f 395//1 17//1 394//1
f 394//1 19//1 391//1
f 395//1 398//1 17//1
f 397//1 395//1 396//1
f 398//1 395//1 397//1
f 398//1 399//1 16//1
f 401//1 402//1 400//1
f 400//1 402//1 399//1
f 405//1 403//1 404//1
f 402//1 15//1 399//1
f 402//1 14//1 15//1
f 405//1 406//1 403//1
f 403//1 406//1 402//1
f 16//1 17//1 398//1
f 402//1 406//1 10//1
f 407//1 8//1 406//1
f 409//1 410//1 408//1
f 408//1 410//1 407//1
f 411//1 407//1 410//1
f 414//1 415//1 413//1
f 413//1 416//1 412//1
f 415//1 416//1 413//1
f 411//1 7//1 407//1
f 406//1 9//1 10//1
f 412//1 416//1 411//1
f 418//1 416//1 417//1
f 7//1 8//1 407//1
f 10//1 11//1 402//1
f 406//1 8//1 9//1
f 416//1 418//1 411//1
f 411//1 419//1 6//1
f 419//1 411//1 418//1
f 1//1 419//1 420//1
f 3//1 419//1 2//1
f 2//1 419//1 1//1
f 6//1 419//1 5//1
f 5//1 419//1 4//1
f 4//1 419//1 3//1
f 6//1 7//1 411//1
f 391//1 22//1 388//1
f 402//1 11//1 14//1
f 391//1 20//1 21//1
f 17//1 18//1 394//1
f 380//1 28//1 379//1
f 394//1 18//1 19//1
f 13//1 14//1 12//1
f 12//1 14//1 11//1
f 22//1 25//1 388//1
f 16//1 399//1 15//1
f 20//1 391//1 19//1
f 421//1 26//1 385//1
f 24//1 25//1 23//1
f 23//1 25//1 22//1
f 26//1 27//1 382//1
f 27//1 28//1 380//1
f 28//1 32//1 379//1
f 32//1 34//1 379//1
f 30//1 31//1 29//1
f 29//1 31//1 28//1
f 32//1 28//1 31//1
f 34//1 32//1 33//1
f 37//1 35//1 36//1
f 37//1 38//1 35//1
f 35//1 40//1 34//1
f 38//1 40//1 35//1
f 40//1 38//1 39//1
f 45//1 47//1 302//1
f 301//1 47//1 49//1
f 44//1 42//1 43//1
f 47//1 45//1 46//1
f 45//1 42//1 44//1
f 49//1 52//1 300//1
f 48//1 49//1 47//1
f 51//1 52//1 50//1
f 50//1 52//1 49//1
f 52//1 53//1 300//1
f 55//1 53//1 54//1
f 55//1 56//1 53//1
f 56//1 297//1 53//1
f 297//1 264//1 296//1
f 56//1 57//1 297//1
f 295//1 285//1 294//1
f 294//1 287//1 293//1
f 57//1 58//1 297//1
f 294//1 286//1 287//1
f 293//1 287//1 292//1
f 296//1 284//1 295//1
f 58//1 263//1 297//1
f 297//1 263//1 264//1
f 292//1 287//1 291//1
f 291//1 288//1 290//1
f 290//1 288//1 289//1
f 288//1 291//1 287//1
f 286//1 294//1 285//1
f 264//1 265//1 296//1
f 59//1 60//1 58//1
f 62//1 60//1 61//1
f 60//1 62//1 58//1
f 295//1 284//1 285//1
f 283//1 280//1 282//1
f 282//1 280//1 281//1
f 265//1 267//1 296//1
f 284//1 278//1 283//1
f 63//1 262//1 62//1
f 65//1 63//1 64//1
f 66//1 63//1 65//1
f 58//1 62//1 263//1
f 296//1 268//1 284//1
f 283//1 279//1 280//1
f 278//1 276//1 277//1
f 283//1 278//1 279//1
f 66//1 262//1 63//1
f 69//1 257//1 68//1
f 68//1 259//1 67//1
f 67//1 262//1 66//1
f 62//1 262//1 263//1
f 278//1 275//1 276//1
f 284//1 275//1 278//1
f 71//1 72//1 70//1
f 70//1 72//1 69//1
f 68//1 257//1 259//1
f 275//1 273//1 274//1
f 284//1 268//1 275//1
f 74//1 72//1 73//1
f 74//1 255//1 72//1
f 72//1 255//1 69//1
f 255//1 433//1 69//1
f 275//1 272//1 273//1
f 272//1 268//1 271//1
f 271//1 269//1 270//1
f 268//1 269//1 271//1
f 267//1 265//1 266//1
f 268//1 296//1 267//1
f 275//1 268//1 272//1
f 75//1 254//1 74//1
f 433//1 257//1 69//1
f 262//1 67//1 261//1
f 261//1 429//1 260//1
f 259//1 429//1 67//1
f 261//1 67//1 429//1
f 259//1 257//1 258//1
f 76//1 252//1 75//1
f 431//1 251//1 76//1
f 74//1 254//1 255//1
f 433//1 255//1 256//1
f 77//1 251//1 431//1
f 80//1 78//1 79//1
f 78//1 251//1 77//1
f 75//1 253//1 254//1
f 252//1 253//1 75//1
f 78//1 250//1 251//1
f 80//1 249//1 78//1
f 81//1 249//1 80//1
f 76//1 251//1 252//1
f 249//1 250//1 78//1
f 425//1 245//1 81//1
f 82//1 244//1 425//1
f 81//1 248//1 249//1
f 248//1 246//1 247//1
f 248//1 81//1 246//1
f 246//1 81//1 245//1
f 245//1 425//1 244//1
f 82//1 83//1 244//1
f 244//1 86//1 243//1
f 243//1 86//1 242//1
f 83//1 85//1 244//1
f 85//1 83//1 84//1
f 86//1 244//1 85//1
f 242//1 86//1 241//1
f 86//1 427//1 241//1
f 241//1 87//1 240//1
f 427//1 87//1 241//1
f 240//1 87//1 239//1
f 89//1 239//1 88//1
f 88//1 239//1 87//1
f 239//1 89//1 238//1
f 91//1 89//1 90//1
f 89//1 237//1 238//1
f 92//1 89//1 91//1
f 95//1 96//1 94//1
f 94//1 96//1 93//1
f 93//1 237//1 92//1
f 92//1 237//1 89//1
f 93//1 99//1 237//1
f 237//1 200//1 236//1
f 99//1 199//1 237//1
f 98//1 99//1 97//1
f 97//1 93//1 96//1
f 99//1 93//1 97//1
f 199//1 200//1 237//1
f 100//1 199//1 99//1
f 236//1 206//1 235//1
f 103//1 101//1 102//1
f 101//1 199//1 100//1
f 103//1 198//1 101//1
f 105//1 106//1 104//1
f 104//1 196//1 103//1
f 104//1 106//1 196//1
f 101//1 198//1 199//1
f 235//1 224//1 234//1
f 233//1 225//1 232//1
f 232//1 225//1 231//1
f 200//1 201//1 236//1
f 231//1 225//1 230//1
f 107//1 195//1 106//1
f 196//1 198//1 103//1
f 234//1 224//1 233//1
f 230//1 226//1 229//1
f 229//1 227//1 228//1
f 226//1 227//1 229//1
f 226//1 230//1 225//1
f 233//1 224//1 225//1
f 108//1 194//1 107//1
f 110//1 191//1 109//1
f 109//1 193//1 108//1
f 194//1 195//1 107//1
f 112//1 113//1 111//1
f 111//1 190//1 110//1
f 113//1 190//1 111//1
f 106//1 195//1 196//1
f 116//1 184//1 115//1
f 115//1 187//1 114//1
f 189//1 190//1 113//1
f 114//1 189//1 113//1
f 193//1 194//1 108//1
f 430//1 184//1 116//1
f 109//1 192//1 193//1
f 117//1 183//1 430//1
f 110//1 190//1 191//1
f 120//1 181//1 119//1
f 119//1 182//1 118//1
f 118//1 183//1 117//1
f 119//1 181//1 182//1
f 187//1 188//1 114//1
f 122//1 180//1 121//1
f 121//1 180//1 120//1
f 122//1 179//1 180//1
f 125//1 123//1 124//1
f 123//1 179//1 122//1
f 223//1 221//1 222//1
f 221//1 223//1 220//1
f 220//1 223//1 219//1
f 219//1 217//1 218//1
f 217//1 219//1 216//1
f 216//1 219//1 215//1
f 214//1 212//1 213//1
f 214//1 211//1 212//1
f 219//1 214//1 215//1
f 422//1 219//1 223//1
f 219//1 207//1 214//1
f 214//1 209//1 211//1
f 207//1 209//1 214//1
f 211//1 209//1 210//1
f 209//1 207//1 208//1
f 206//1 236//1 205//1
f 205//1 203//1 204//1
f 236//1 203//1 205//1
f 207//1 235//1 206//1
f 224//1 235//1 207//1
f 422//1 224//1 219//1
f 224//1 207//1 219//1
f 203//1 236//1 202//1
f 128//1 129//1 127//1
f 127//1 175//1 126//1
f 129//1 175//1 127//1
f 126//1 176//1 125//1
f 175//1 176//1 126//1
f 132//1 171//1 131//1
f 131//1 172//1 130//1
f 171//1 172//1 131//1
f 130//1 173//1 129//1
f 135//1 136//1 167//1
f 167//1 168//1 135//1
f 125//1 177//1 123//1
f 169//1 134//1 135//1
f 133//1 171//1 132//1
f 133//1 169//1 170//1
f 134//1 169//1 133//1
f 138//1 424//1 137//1
f 137//1 166//1 136//1
f 138//1 165//1 424//1
f 170//1 171//1 133//1
f 135//1 168//1 169//1
f 136//1 166//1 167//1
f 202//1 236//1 201//1
f 137//1 424//1 166//1
f 141//1 163//1 140//1
f 140//1 163//1 139//1
f 139//1 164//1 138//1
f 163//1 164//1 139//1
f 144//1 160//1 143//1
f 143//1 160//1 142//1
f 142//1 162//1 141//1
f 198//1 196//1 197//1
f 141//1 162//1 163//1
f 147//1 158//1 146//1
f 146//1 159//1 145//1
f 145//1 160//1 144//1
f 109//1 191//1 192//1
f 146//1 158//1 159//1
f 142//1 161//1 162//1
f 159//1 160//1 145//1
f 149//1 150//1 148//1
f 148//1 156//1 147//1
f 150//1 155//1 148//1
f 152//1 153//1 151//1
f 151//1 155//1 150//1
f 153//1 154//1 151//1
f 155//1 156//1 148//1
f 142//1 160//1 161//1
f 115//1 186//1 187//1
f 188//1 189//1 114//1
f 115//1 185//1 186//1
f 184//1 185//1 115//1
f 154//1 155//1 151//1
f 157//1 147//1 156//1
f 158//1 147//1 157//1
f 183//1 184//1 430//1
f 165//1 138//1 164//1
f 118//1 182//1 183//1
f 120//1 432//1 181//1
f 120//1 180//1 432//1
f 172//1 173//1 130//1
f 179//1 123//1 178//1
f 173//1 174//1 129//1
f 129//1 174//1 175//1
f 178//1 123//1 177//1
